<?xml version="1.0" standalone="no"?>
<!DOCTYPE svg PUBLIC "-//W3C//DTD SVG 20010904//EN"
 "http://www.w3.org/TR/2001/REC-SVG-20010904/DTD/svg10.dtd">
<svg version="1.0" xmlns="http://www.w3.org/2000/svg"
 width="960.000000pt" height="1618.000000pt" viewBox="0 0 960.000000 1618.000000"
 preserveAspectRatio="xMidYMid meet">

<g transform="translate(0.000000,1618.000000) scale(0.100000,-0.100000)"
fill="#000000" stroke="none">
<path d="M2920 16136 c0 -33 8 -57 30 -89 22 -33 30 -57 30 -89 0 -34 6 -50
24 -67 18 -17 27 -38 31 -80 4 -31 14 -76 22 -101 9 -25 16 -76 17 -113 1 -81
11 -92 90 -102 40 -5 74 -1 143 18 l91 25 35 -36 36 -37 -59 -216 c-32 -119
-63 -226 -69 -236 -6 -12 -86 -55 -198 -107 -103 -48 -195 -96 -204 -106 -8
-10 -24 -19 -34 -21 -11 -2 -22 -13 -25 -24 -3 -11 -17 -40 -31 -65 -46 -77
-45 -81 12 -141 43 -45 48 -55 33 -57 -30 -6 -54 -43 -54 -88 0 -22 -5 -45
-11 -51 -9 -9 -7 -25 7 -65 10 -29 22 -58 26 -64 7 -10 58 -222 58 -241 0 -4
-16 -19 -35 -32 -33 -22 -35 -27 -35 -81 0 -55 3 -62 64 -144 48 -66 62 -92
58 -111 -3 -18 -11 -25 -28 -25 -14 0 -32 -12 -46 -30 l-22 -31 -16 21 c-34
45 -101 -6 -105 -79 -2 -32 -37 -119 -64 -161 -6 -8 -13 -41 -16 -72 -5 -45
-12 -63 -36 -86 -17 -16 -33 -42 -38 -57 -7 -28 -18 -38 -53 -49 -11 -3 -18
-15 -18 -29 0 -16 -11 -32 -34 -48 -29 -20 -35 -30 -41 -78 -3 -31 -7 -83 -8
-115 -1 -37 -7 -61 -14 -63 -8 -3 -13 -23 -13 -53 0 -44 -3 -50 -35 -69 -21
-12 -33 -26 -29 -34 3 -8 -2 -20 -11 -27 -16 -14 -21 -55 -6 -64 5 -3 15 -30
21 -58 7 -29 16 -58 21 -64 9 -11 10 -30 9 -146 -1 -77 -1 -78 24 -78 15 0 26
-6 25 -12 -1 -26 -45 -93 -59 -91 -8 1 -28 5 -44 9 -28 7 -29 6 -23 -22 3 -16
-1 -44 -9 -63 -8 -18 -14 -47 -14 -63 0 -16 -5 -38 -11 -50 -6 -11 -11 -49
-10 -84 0 -64 -2 -68 -39 -65 -27 2 -39 -35 -41 -135 -2 -70 1 -109 11 -131 8
-18 18 -33 22 -33 4 0 10 -16 14 -35 7 -37 28 -55 63 -55 24 0 33 -13 25 -33
-3 -9 -13 -13 -25 -10 -25 7 -36 -22 -15 -42 9 -9 16 -32 16 -50 0 -24 6 -38
20 -45 11 -6 20 -20 20 -32 0 -11 12 -32 26 -45 20 -19 23 -27 14 -38 -16 -19
3 -85 35 -123 28 -33 31 -53 13 -81 -8 -14 -7 -33 7 -84 20 -73 40 -90 67 -57
20 24 35 19 48 -16 8 -19 5 -29 -11 -45 -22 -22 -22 -7 -6 -266 2 -23 6 -45
10 -49 4 -4 7 -16 7 -27 0 -15 -5 -18 -24 -13 -30 7 -52 -17 -48 -53 2 -15 -5
-38 -16 -51 -11 -14 -33 -54 -50 -90 -23 -48 -28 -67 -20 -77 8 -10 8 -20 -2
-37 -7 -14 -14 -46 -15 -73 -2 -26 -4 -51 -4 -55 -1 -5 -12 -8 -26 -8 -32 0
-55 -41 -35 -65 7 -8 21 -15 31 -15 15 0 19 -7 19 -33 0 -19 3 -37 7 -41 4 -4
8 -19 10 -34 2 -15 8 -44 15 -65 8 -28 8 -43 0 -62 -8 -17 -8 -33 -2 -51 6
-14 7 -36 4 -50 -5 -19 -11 -23 -30 -18 -19 5 -26 1 -34 -20 -5 -15 -17 -29
-25 -32 -9 -4 -15 -19 -15 -40 0 -31 -2 -34 -31 -34 -22 0 -32 -5 -36 -20 -3
-13 -14 -20 -29 -20 -22 0 -24 -4 -24 -45 0 -25 -4 -45 -10 -45 -5 0 -10 -17
-10 -37 0 -21 -4 -45 -10 -53 -5 -9 -5 -19 1 -26 7 -9 6 -19 -3 -34 -10 -15
-10 -22 -1 -28 20 -13 26 -62 12 -104 -11 -35 -11 -44 4 -70 19 -34 22 -80 6
-110 -8 -15 -7 -28 2 -51 8 -18 12 -42 11 -54 -2 -13 1 -23 6 -23 17 0 51 -78
56 -127 9 -87 18 -113 52 -143 27 -23 32 -33 25 -47 -5 -10 -12 -26 -15 -35
-3 -11 -15 -18 -29 -18 -14 0 -30 -7 -37 -15 -7 -8 -16 -15 -21 -15 -5 0 -27
-17 -49 -37 -45 -43 -48 -62 -26 -155 11 -50 11 -60 -1 -78 -8 -12 -13 -30
-10 -40 3 -11 -1 -25 -9 -31 -9 -7 -12 -20 -8 -33 5 -17 4 -19 -7 -8 -20 19
-46 14 -52 -10 -8 -33 16 -128 35 -139 14 -8 14 -12 -1 -44 -9 -19 -23 -34
-33 -35 -10 0 -18 -6 -19 -12 -5 -58 18 -113 49 -121 13 -3 11 -6 -9 -14 -29
-13 -58 -88 -40 -106 6 -6 4 -18 -7 -35 -15 -23 -15 -28 2 -73 9 -27 14 -54
11 -60 -4 -5 -1 -17 6 -25 14 -18 21 -121 9 -143 -4 -7 -1 -25 6 -40 7 -15 15
-48 18 -74 2 -26 12 -59 21 -73 9 -14 18 -40 20 -57 2 -18 7 -51 10 -73 7 -49
-9 -61 -53 -39 -26 13 -33 13 -61 -1 -25 -13 -31 -20 -26 -37 21 -71 31 -94
47 -109 23 -21 23 -39 -2 -84 -19 -32 -19 -42 -10 -97 7 -39 20 -71 33 -85 12
-12 31 -32 42 -43 11 -12 35 -28 53 -35 38 -17 42 -41 8 -53 -38 -15 -51 -82
-18 -100 9 -5 16 -12 15 -15 -7 -16 -1 -26 16 -26 11 0 26 -7 35 -15 8 -8 20
-15 28 -15 7 0 3 -7 -9 -15 -32 -23 -38 -63 -13 -90 19 -20 20 -26 10 -47 -7
-12 -21 -31 -31 -41 -16 -14 -17 -22 -8 -39 6 -11 11 -42 11 -69 -1 -27 2 -50
6 -53 4 -2 38 -1 76 3 85 9 135 2 150 -22 9 -14 7 -20 -6 -28 -13 -7 -18 -23
-18 -54 0 -49 -11 -56 -42 -28 -19 17 -21 17 -50 0 -18 -10 -39 -15 -54 -11
-13 3 -31 1 -38 -5 -9 -8 -28 -10 -50 -5 -36 6 -36 6 -36 -27 0 -19 4 -39 8
-45 8 -12 54 -27 92 -29 72 -4 77 -6 90 -32 8 -16 29 -42 47 -60 36 -35 35
-54 -3 -72 -22 -10 -25 -16 -19 -41 6 -27 4 -30 -20 -30 -45 0 -63 -16 -64
-57 0 -42 19 -123 30 -123 4 0 15 -7 23 -16 14 -14 14 -18 -7 -47 -12 -18 -25
-33 -28 -35 -3 -1 -15 -9 -25 -17 -18 -15 -18 -16 9 -38 26 -22 44 -69 67
-172 9 -44 -5 -70 -48 -86 -13 -5 -22 -17 -23 -31 0 -13 -2 -47 -3 -77 -3 -45
0 -54 15 -58 21 -6 26 -35 7 -32 -31 4 -40 -2 -35 -21 3 -11 1 -23 -5 -26 -5
-3 -13 -17 -18 -30 -6 -14 -18 -24 -29 -24 -29 0 -45 -34 -29 -60 10 -16 10
-23 0 -38 -7 -9 -15 -25 -18 -34 -3 -9 -12 -19 -20 -22 -11 -4 -12 -10 -3 -29
8 -18 8 -30 -1 -47 -10 -19 -8 -26 12 -49 40 -44 50 -59 58 -93 4 -18 11 -41
15 -50 5 -13 2 -18 -9 -18 -10 0 -19 -11 -22 -29 -4 -21 -11 -27 -23 -24 -32
8 -43 -19 -26 -67 21 -59 19 -91 -8 -131 -16 -23 -31 -34 -47 -34 -21 0 -31
-12 -62 -75 -41 -83 -45 -100 -23 -100 10 0 15 -10 15 -29 0 -17 5 -33 10 -36
6 -3 10 -19 10 -36 0 -16 5 -29 10 -29 6 0 10 14 10 30 0 17 -5 30 -11 30 -15
0 -3 61 14 72 9 6 7 12 -7 23 -20 15 -20 15 0 62 15 38 25 49 45 51 18 2 37
18 59 48 29 42 32 51 27 97 -3 29 -8 60 -12 70 -6 13 -2 17 14 17 16 0 26 10
37 35 8 19 18 35 23 35 17 0 21 33 7 49 -7 9 -17 35 -21 59 -4 23 -10 42 -15
42 -4 0 -17 16 -29 36 -19 31 -20 40 -10 82 7 26 18 55 26 64 10 11 14 32 11
60 -3 37 0 43 17 46 13 2 30 20 44 46 14 25 31 43 40 42 22 -1 28 64 8 79 -21
15 -27 117 -8 123 7 2 25 18 41 35 25 27 29 38 24 67 -6 35 -24 101 -50 173
-11 34 -11 41 8 72 12 21 28 35 40 35 18 0 18 1 4 16 -9 8 -16 22 -16 29 0 8
-8 20 -18 27 -45 33 -53 138 -10 138 33 0 58 19 58 45 0 13 12 36 26 50 31 31
26 58 -17 96 -16 14 -29 30 -29 35 0 5 -10 21 -23 37 -19 24 -32 28 -97 35
-57 5 -75 11 -78 23 -2 13 4 16 32 13 19 -3 37 0 41 6 3 5 17 7 30 4 13 -3 33
1 48 10 22 15 26 15 37 1 15 -18 51 -20 68 -3 7 7 12 31 12 54 0 29 5 44 16
48 23 9 13 56 -17 78 -22 16 -42 20 -113 19 -47 -1 -86 2 -86 7 -1 4 -5 27
-10 52 -7 36 -5 49 10 70 31 44 33 67 10 100 l-21 30 25 24 c32 29 33 54 4 65
-26 10 -98 79 -98 94 0 5 13 14 30 20 20 8 30 18 30 32 0 36 -12 65 -27 65 -7
0 -25 11 -39 25 -14 14 -28 25 -31 25 -3 0 -16 11 -29 25 -31 34 -38 92 -19
165 19 74 19 86 -3 108 -28 28 -46 84 -30 94 17 10 25 10 46 -3 29 -18 76 9
80 46 2 16 9 33 15 37 8 5 6 8 -5 8 -12 0 -18 13 -23 48 -3 26 -15 65 -25 86
-10 22 -16 46 -13 53 3 7 0 20 -7 28 -8 10 -13 53 -14 120 l-1 105 55 2 55 1
-60 6 c-50 5 -60 9 -63 26 -2 11 -10 37 -19 57 -14 34 -14 40 0 61 11 17 14
37 10 66 -5 33 -3 41 10 41 24 0 50 45 42 70 -4 12 -18 25 -31 30 -30 12 -31
42 -1 55 14 6 22 19 23 35 1 14 6 37 12 53 10 23 9 30 -9 48 -11 11 -23 36
-26 54 -5 32 -4 34 28 37 31 3 34 6 37 38 4 56 9 84 17 103 4 10 5 38 1 62
-20 144 -24 125 37 173 31 23 64 42 75 42 21 0 47 25 54 55 3 11 9 27 13 36 4
12 -6 29 -34 57 -41 41 -45 52 -43 135 0 26 -9 53 -29 85 -16 25 -29 54 -29
64 0 11 -7 33 -16 49 -10 21 -12 34 -5 43 18 22 16 93 -4 115 -17 20 -17 24
-2 77 9 31 13 62 9 68 -7 11 -12 70 -12 131 1 16 7 33 16 38 12 7 13 19 8 53
-5 36 -3 44 9 44 9 0 23 8 33 17 9 9 26 19 38 20 42 6 48 12 41 42 -8 36 28
85 56 76 10 -3 21 -1 24 6 6 8 9 8 14 0 4 -6 6 21 4 61 -1 40 2 82 8 94 8 16
7 30 -5 59 -9 20 -16 52 -16 71 0 18 -4 36 -10 39 -5 3 -10 22 -10 41 0 30 -4
37 -30 47 -36 14 -39 27 -5 27 31 0 58 39 50 72 -3 13 1 45 10 71 9 27 15 56
14 65 -5 39 22 102 65 150 12 14 19 34 18 51 -2 24 1 28 17 24 29 -7 63 41 50
73 -5 14 -9 41 -9 60 0 20 -5 44 -10 54 -6 11 -11 57 -11 102 -1 73 2 83 22
98 27 21 21 54 -17 99 -31 37 -49 39 -65 9 -11 -21 -13 -20 -26 26 -10 35 -12
55 -4 70 23 47 21 61 -14 101 -36 41 -39 53 -36 116 2 28 -3 41 -19 52 -14 10
-20 23 -18 39 2 19 10 23 43 26 22 1 58 6 80 12 22 5 52 11 68 15 22 4 27 11
27 35 0 23 6 33 24 40 13 5 27 14 31 20 3 6 -9 2 -27 -8 -22 -13 -35 -28 -38
-48 -6 -32 -17 -36 -155 -53 -76 -10 -95 -3 -93 33 0 11 -3 29 -7 39 -4 10 -3
17 4 17 6 0 18 11 27 25 16 25 16 27 -6 50 -14 15 -35 25 -51 25 -26 0 -39 15
-39 46 0 8 -10 28 -22 44 -22 31 -22 31 -19 195 1 30 4 36 13 27 15 -15 38
-16 38 -1 0 6 9 24 21 40 17 24 19 35 11 57 -10 30 -5 89 9 98 5 3 9 20 9 37
0 18 8 53 17 79 14 39 20 47 37 43 28 -6 48 11 74 66 28 58 28 77 -2 90 -23
11 -24 15 -22 101 1 51 -4 98 -10 107 -5 9 -16 36 -23 61 -6 25 -17 55 -23 68
-9 17 -9 25 -1 30 7 4 16 20 22 35 6 15 22 32 36 37 22 8 25 16 25 55 0 26 6
56 12 68 7 12 14 47 15 77 1 30 5 72 8 93 6 32 11 37 36 37 15 0 31 -4 34 -10
3 -5 15 -10 27 -10 11 0 38 -14 59 -31 21 -17 39 -27 39 -22 -1 14 -77 63 -99
63 -11 0 -23 5 -26 10 -3 6 -18 10 -33 10 l-27 0 33 31 c17 16 32 37 32 45 0
7 6 14 13 14 13 0 57 59 57 77 0 5 14 24 30 42 17 17 33 44 36 60 6 27 10 30
58 34 28 3 71 10 96 16 l45 10 -45 -5 c-25 -3 -66 -7 -92 -10 l-48 -6 0 35 c0
19 7 40 15 47 8 6 17 22 21 33 4 12 17 44 30 71 18 37 21 53 13 63 -9 10 -8
18 2 31 24 29 32 31 57 11 35 -27 56 -24 69 10 8 23 18 30 44 33 28 2 35 8 37
28 2 14 9 31 14 38 8 9 4 20 -14 40 -14 15 -46 55 -71 89 -40 52 -47 68 -47
106 0 40 4 48 37 75 l37 30 -28 131 c-16 72 -33 134 -37 137 -5 3 -9 13 -9 23
0 10 -7 31 -15 47 -8 17 -11 32 -5 39 5 5 10 28 12 50 l3 40 50 -2 50 -2 -42
8 c-49 8 -68 21 -32 21 24 0 49 16 49 32 0 4 -25 33 -55 64 -30 31 -55 58 -55
60 0 2 16 28 35 58 19 30 35 60 35 66 0 5 9 10 19 10 11 0 22 8 25 18 4 12 75
51 206 112 192 90 200 94 215 132 8 21 15 44 15 51 0 6 4 18 8 25 11 16 65 -9
87 -41 8 -12 15 -17 15 -11 0 13 -39 49 -63 57 -9 4 -20 13 -23 21 -3 8 15 92
41 187 l46 172 -41 42 c-44 45 -45 63 -4 90 13 8 24 25 24 38 0 21 40 57 83
73 10 4 19 21 23 44 3 20 9 41 13 46 3 5 39 21 80 35 l75 26 19 74 c11 41 21
76 23 77 10 12 67 -13 76 -34 7 -16 20 -24 35 -24 15 0 38 -15 62 -40 l38 -40
127 6 127 7 -5 -29 -6 -29 11 29 c11 28 13 28 73 24 91 -8 175 -55 176 -99 0
-25 29 -76 45 -83 9 -3 15 -18 15 -35 0 -33 19 -81 32 -81 4 0 8 -8 8 -17 0
-32 16 -46 43 -39 27 6 47 48 47 95 0 15 9 45 21 66 12 22 43 84 71 138 l50
97 249 0 c232 0 249 -1 249 -18 0 -10 23 -38 51 -62 28 -25 57 -51 64 -57 8
-7 18 -13 24 -13 5 0 14 -7 19 -15 4 -9 23 -23 42 -33 18 -9 37 -24 40 -32 4
-8 12 -25 18 -37 7 -13 12 -28 12 -34 0 -7 12 -28 28 -48 33 -44 52 -79 52
-97 0 -7 12 -20 28 -28 15 -8 46 -35 69 -60 23 -25 48 -46 55 -46 15 -1 58
-34 58 -46 0 -11 33 -33 51 -34 8 0 24 -8 35 -17 11 -10 33 -25 48 -33 16 -8
32 -22 36 -30 36 -77 69 -103 170 -131 25 -7 53 -20 64 -28 10 -9 20 -15 22
-13 12 7 35 0 51 -17 12 -12 37 -20 75 -23 51 -4 69 -13 169 -79 62 -41 117
-79 123 -85 6 -6 24 -14 39 -18 15 -3 27 -12 27 -20 0 -11 140 -106 157 -106
3 0 20 -10 37 -23 41 -30 113 -67 119 -61 9 9 71 -27 94 -55 19 -23 24 -25 43
-13 20 12 26 10 61 -17 21 -17 45 -31 53 -31 8 0 18 -4 21 -10 3 -5 14 -10 23
-10 9 0 28 -17 42 -36 14 -20 32 -44 42 -54 9 -10 19 -27 22 -38 4 -11 13 -26
21 -32 28 -23 10 -110 -21 -110 -27 0 -96 -102 -106 -154 -2 -12 -25 -31 -58
-49 -30 -15 -56 -34 -58 -40 -4 -15 -21 -56 -33 -79 -5 -10 -6 -24 -3 -32 3
-8 1 -17 -5 -21 -7 -4 -9 -22 -5 -46 4 -25 3 -39 -4 -39 -6 0 -21 -21 -33 -46
-13 -25 -27 -48 -32 -51 -17 -11 -64 19 -88 56 -13 21 -44 53 -68 72 -25 19
-61 51 -81 72 -50 51 -105 79 -133 66 l-22 -10 22 5 c29 5 88 -25 128 -66 17
-18 56 -56 86 -84 29 -28 68 -66 85 -85 l30 -35 -22 -39 c-12 -22 -31 -45 -43
-51 -32 -17 -35 -22 -20 -40 11 -14 10 -19 -11 -35 -14 -10 -29 -19 -34 -19
-6 0 -27 -12 -48 -26 -36 -25 -38 -29 -36 -78 l1 -51 4 45 c3 25 12 53 21 63
32 36 115 69 182 73 80 5 206 -11 237 -31 12 -8 30 -15 39 -15 10 0 33 -12 52
-27 27 -21 45 -26 78 -24 26 1 63 -6 92 -19 27 -12 56 -20 64 -18 7 2 27 -12
44 -31 35 -38 63 -37 82 4 8 18 19 25 40 25 29 0 62 -26 62 -49 0 -6 7 -14 16
-18 18 -7 64 33 64 56 0 21 79 65 105 59 16 -3 20 -11 18 -38 -2 -30 -1 -32 7
-12 12 29 45 28 66 -3 20 -31 31 -31 68 -1 22 19 29 32 28 57 -1 38 22 69 50
69 10 0 18 4 18 10 0 23 45 50 83 50 30 0 45 7 69 30 16 17 38 30 49 30 11 0
23 10 28 24 11 26 33 38 56 30 11 -5 15 1 15 25 0 22 7 35 25 47 14 9 25 25
25 35 0 10 5 21 10 24 6 4 8 15 5 25 -3 10 -1 21 5 25 6 4 8 14 6 23 -3 10 -2
23 3 31 5 8 6 24 0 37 -6 17 -4 26 5 31 28 17 37 51 25 93 -11 37 -10 41 12
59 29 24 38 25 63 6 15 -11 23 -12 33 -3 7 6 30 14 51 18 20 4 49 11 65 15 21
5 27 4 27 -8 0 -8 7 -17 15 -21 8 -3 15 -14 15 -23 0 -10 9 -26 20 -36 21 -17
23 -29 20 -107 -1 -35 4 -50 19 -64 12 -11 21 -25 21 -32 0 -7 9 -29 21 -48
19 -33 19 -37 4 -65 -8 -17 -19 -31 -24 -31 -11 0 -41 -98 -42 -135 0 -17 3
-45 7 -62 5 -28 1 -38 -25 -68 -30 -35 -35 -46 -32 -72 1 -8 -9 -13 -23 -13
-13 0 -38 -11 -54 -25 -17 -14 -42 -25 -56 -25 -14 0 -26 -5 -26 -11 0 -21
-44 -51 -68 -46 -25 5 -69 -7 -115 -30 -15 -8 -31 -12 -37 -8 -18 11 -78 -22
-82 -47 -2 -13 -15 -28 -30 -36 -16 -7 -28 -17 -28 -23 0 -5 -8 -9 -18 -9 -10
0 -23 -5 -29 -11 -7 -7 -13 -7 -17 -1 -10 16 -62 -8 -79 -38 -9 -14 -36 -37
-61 -49 l-45 -24 -28 33 c-15 18 -31 40 -35 49 -6 14 -7 14 -7 0 -1 -9 6 -22
15 -29 30 -26 37 -51 18 -65 -15 -11 -16 -17 -7 -37 8 -17 8 -30 0 -44 -15
-28 -16 -29 -30 -12 -6 9 -22 19 -34 22 -18 6 -22 2 -25 -21 -2 -20 -9 -29
-25 -31 -14 -2 -23 -10 -23 -20 0 -20 -92 -102 -114 -102 -8 0 -17 -13 -21
-31 -4 -19 -15 -33 -26 -36 -10 -3 -19 -14 -19 -24 0 -20 -36 -49 -61 -49 -20
0 -44 -27 -54 -60 -12 -38 -211 -230 -239 -230 -28 0 -56 -29 -56 -58 0 -12
-7 -27 -16 -34 -8 -7 -27 -25 -41 -40 -14 -15 -34 -30 -43 -33 -10 -3 -21 -20
-26 -38 -7 -23 -25 -42 -63 -66 -57 -37 -58 -41 -35 -120 5 -18 4 -23 -7 -19
-23 7 -79 88 -79 113 0 13 -16 42 -35 65 -19 23 -35 37 -35 31 0 -6 14 -26 30
-44 17 -19 30 -42 30 -51 0 -27 25 -68 64 -105 41 -40 46 -71 15 -100 -12 -11
-18 -24 -15 -30 8 -12 -31 -138 -45 -147 -5 -3 -9 -12 -9 -21 0 -9 -8 -22 -17
-29 -15 -11 -16 -16 -5 -33 17 -29 15 -54 -10 -106 -14 -29 -31 -48 -45 -51
-26 -7 -27 -12 -13 -50 8 -20 8 -36 -1 -56 -10 -24 -9 -34 6 -62 14 -26 15
-37 6 -54 -6 -12 -16 -22 -21 -22 -6 0 -10 -6 -10 -12 0 -7 -6 -25 -14 -39
-11 -21 -12 -46 -4 -118 11 -115 1 -143 -56 -152 -44 -7 -56 -21 -56 -67 0
-18 -7 -47 -17 -65 -22 -43 -25 -255 -4 -280 11 -14 11 -17 1 -17 -8 0 -11 -3
-8 -6 4 -3 16 0 28 6 18 10 19 14 8 27 -20 24 -16 218 5 263 9 19 17 51 19 70
3 32 6 35 46 43 63 12 76 48 65 174 -5 52 -5 97 -1 99 4 3 8 13 8 23 0 10 9
26 19 35 28 25 34 63 17 98 -12 23 -13 35 -5 50 6 11 8 35 5 53 -5 24 -3 34 9
39 26 10 68 112 63 154 -3 20 -1 44 3 52 18 37 46 109 58 150 8 25 20 59 29
76 15 31 14 128 -3 166 -5 13 5 24 44 48 28 18 51 38 51 45 0 16 29 28 44 17
6 -4 31 -8 56 -7 39 0 47 4 65 32 19 31 49 50 70 44 5 -1 19 -3 30 -4 22 -2
62 -41 130 -123 22 -27 61 -71 87 -98 27 -26 48 -54 48 -61 0 -6 13 -26 29
-42 28 -29 28 -33 19 -84 -8 -46 -7 -55 8 -66 26 -19 50 -16 94 12 22 14 44
25 49 25 6 0 15 8 21 18 9 15 13 14 41 -18 16 -19 42 -60 56 -91 25 -55 72
-99 106 -99 10 0 20 -6 23 -14 9 -24 53 -48 98 -53 52 -6 75 -26 82 -74 5 -31
20 -50 79 -103 41 -36 79 -66 85 -66 7 0 31 -20 54 -43 41 -44 76 -122 76
-171 0 -18 15 -42 48 -76 27 -28 53 -50 58 -50 5 0 26 -14 47 -31 l37 -31 -22
-24 c-13 -13 -29 -24 -35 -24 -7 0 -20 -11 -29 -25 -9 -13 -31 -34 -49 -45
-39 -24 -53 -55 -60 -130 -3 -30 -10 -81 -16 -113 -10 -57 -9 -59 16 -83 14
-13 30 -24 36 -24 17 0 9 39 -10 52 -17 12 -18 19 -9 68 5 30 13 81 16 114 7
57 9 62 52 93 25 17 61 48 80 68 19 19 41 35 48 35 21 0 13 44 -16 76 -15 17
-42 37 -60 45 -19 8 -35 24 -38 37 -4 13 -14 22 -25 22 -11 0 -23 10 -28 23
-14 36 -34 120 -33 140 0 9 -10 25 -24 33 -13 9 -24 20 -24 25 0 15 -73 79
-90 79 -27 1 -129 108 -135 144 -10 51 -45 82 -102 90 -47 6 -60 16 -97 71
-12 16 -16 17 -30 6 -13 -11 -19 -11 -32 0 -23 19 -64 85 -64 103 0 8 -6 21
-13 28 -7 7 -27 32 -45 56 -36 45 -61 54 -69 22 -7 -25 -98 -84 -118 -76 -11
4 -14 13 -8 33 14 57 8 95 -19 118 -14 12 -29 33 -33 46 -4 13 -26 42 -49 64
-53 52 -120 133 -124 151 -2 8 -8 14 -13 14 -5 0 -23 13 -39 29 -21 20 -45 30
-79 35 -61 8 -74 3 -97 -39 -16 -30 -21 -33 -66 -33 -26 -1 -48 2 -48 5 0 4
23 28 50 54 35 33 50 55 50 73 0 17 7 29 18 32 57 19 78 34 167 123 60 59 104
112 110 132 9 27 20 36 51 45 23 6 44 20 50 33 6 12 21 32 33 45 11 12 21 28
21 34 0 6 14 18 30 27 16 9 30 20 30 25 0 5 16 20 34 32 19 13 37 31 40 40 2
10 12 21 23 25 10 4 23 13 29 21 8 11 13 12 18 4 24 -39 80 14 78 74 -1 28 2
34 19 34 27 0 92 42 116 76 14 18 31 28 50 30 66 4 132 44 159 96 10 19 22 28
39 28 13 0 47 9 75 20 28 11 68 20 90 20 29 0 48 8 73 30 19 17 39 30 43 30 5
0 26 11 46 25 20 14 48 25 62 25 19 0 27 8 36 35 6 20 23 49 38 66 16 20 25
42 25 63 -1 17 -2 50 -3 73 -1 44 18 123 31 123 4 0 15 20 24 45 17 43 17 45
-4 80 -11 20 -21 41 -21 47 0 5 -8 22 -18 36 -14 21 -18 43 -16 94 2 59 0 70
-22 93 -13 14 -24 29 -24 33 0 4 -12 20 -26 36 -22 25 -30 28 -62 22 -20 -4
-50 -9 -65 -12 -15 -2 -36 -8 -47 -14 -13 -7 -26 -7 -37 -1 -10 5 -26 12 -35
15 -26 8 -22 31 11 68 36 42 59 88 54 110 -5 18 18 86 56 168 11 25 21 59 21
76 0 17 9 43 21 58 15 20 19 34 14 54 -17 73 -17 80 4 98 12 10 21 24 21 31 0
38 -148 144 -174 124 -6 -5 -29 -12 -51 -16 -22 -4 -45 -11 -52 -16 -17 -14
-140 -22 -148 -9 -3 5 -18 10 -32 10 -25 0 -25 1 -20 54 4 43 1 61 -15 87 -14
23 -18 41 -13 63 14 72 15 154 1 168 -27 28 -39 139 -17 161 20 20 13 84 -13
110 -17 17 -22 31 -19 51 4 17 0 33 -11 44 -9 9 -22 25 -29 35 -13 18 -42 25
-114 26 -23 1 -48 7 -55 14 -7 7 -21 16 -30 20 -10 3 -24 22 -32 42 -20 47
-54 48 -97 0 -23 -25 -38 -33 -53 -29 -12 3 -34 1 -49 -5 -14 -6 -29 -6 -32
-2 -6 10 -44 18 -130 26 -91 9 -174 35 -181 58 -5 16 -13 18 -70 14 -35 -3
-67 -1 -69 4 -3 4 4 27 16 50 16 33 22 64 24 135 1 66 7 98 19 115 20 29 21
59 1 59 -8 0 -15 -5 -15 -10 0 -6 -11 -28 -25 -50 -18 -29 -23 -45 -17 -58 16
-31 3 -143 -22 -194 -34 -67 -8 -95 78 -84 44 5 53 3 64 -14 7 -11 20 -20 30
-20 9 0 30 -7 45 -15 15 -8 63 -17 105 -20 89 -6 110 -12 135 -33 14 -13 21
-13 41 -2 14 7 36 10 49 6 20 -5 33 2 66 36 43 42 47 43 65 6 22 -43 85 -76
155 -81 57 -4 68 -8 88 -33 13 -16 23 -43 23 -60 0 -18 8 -38 20 -49 24 -21
25 -40 6 -86 -7 -19 -11 -40 -9 -47 3 -7 0 -19 -7 -27 -9 -11 -8 -19 4 -37 9
-12 16 -30 16 -39 0 -9 6 -22 14 -28 13 -11 13 -35 -1 -168 -3 -32 -1 -53 5
-53 16 0 29 -51 24 -93 -8 -72 32 -99 143 -96 89 3 96 4 103 15 4 7 33 17 65
24 49 10 59 9 73 -4 8 -9 22 -16 29 -16 8 0 23 -13 35 -30 20 -28 20 -32 6
-52 -19 -27 -20 -67 -4 -102 9 -22 8 -29 -6 -45 -10 -11 -20 -39 -23 -63 -3
-24 -15 -61 -26 -83 -29 -58 -57 -144 -57 -176 0 -16 -16 -48 -40 -80 -29 -38
-40 -63 -40 -88 0 -19 -7 -43 -17 -53 -14 -15 -15 -26 -6 -63 9 -40 8 -49 -9
-70 -11 -15 -21 -46 -23 -77 -7 -82 -25 -147 -46 -161 -10 -7 -23 -25 -28 -40
-6 -15 -17 -27 -25 -27 -8 0 -23 -11 -34 -25 -11 -14 -24 -25 -29 -25 -5 0
-24 -13 -43 -30 -20 -17 -47 -29 -63 -30 -32 0 -63 -14 -92 -41 -11 -10 -35
-31 -52 -45 -26 -20 -33 -33 -33 -60 0 -43 -33 -66 -50 -34 -6 11 -21 20 -33
20 -12 0 -31 7 -41 15 -27 20 -68 19 -97 -3 -13 -10 -32 -22 -42 -25 -9 -4
-19 -12 -21 -19 -16 -54 -15 -54 -46 -20 -22 24 -37 32 -64 32 -48 0 -66 -9
-77 -37 -8 -21 -12 -23 -24 -13 -8 7 -15 18 -15 26 0 18 -32 34 -57 28 -11 -3
-39 4 -61 15 -24 12 -60 21 -87 21 -34 0 -55 7 -79 25 -18 14 -40 25 -48 25
-8 0 -29 7 -47 16 -35 17 -147 36 -201 33 -19 -1 -46 -1 -60 0 -25 1 -25 1 -4
19 11 9 25 29 32 45 6 15 23 31 36 37 43 16 110 127 104 172 -3 16 -1 31 4 34
4 3 8 15 8 27 0 12 7 35 15 51 8 15 15 34 15 41 0 7 25 25 55 40 46 24 57 34
65 64 12 47 60 120 82 127 54 17 77 112 38 161 -11 14 -20 32 -20 41 0 8 -10
25 -22 37 -13 13 -36 39 -52 59 -16 20 -35 36 -41 36 -17 0 -75 30 -112 58
-23 17 -40 22 -57 18 -15 -4 -28 0 -37 10 -17 21 -63 44 -87 44 -11 0 -25 7
-32 15 -7 8 -19 15 -26 15 -8 0 -38 15 -67 34 -28 18 -74 46 -102 61 -27 16
-62 41 -76 57 -15 15 -37 32 -50 37 -13 5 -84 49 -156 98 -120 81 -136 88
-172 85 -30 -3 -47 1 -67 17 -15 12 -33 21 -41 21 -8 0 -24 5 -36 12 -31 17
-89 38 -108 38 -25 0 -99 58 -99 78 0 27 -115 122 -148 122 -7 0 -31 18 -53
40 -23 22 -48 40 -55 40 -8 0 -19 9 -26 20 -7 11 -32 34 -56 52 -24 18 -51 50
-61 73 -10 22 -30 54 -45 70 -14 17 -26 36 -26 43 0 7 -4 20 -9 30 -5 9 -15
30 -22 45 -7 16 -30 37 -51 48 -21 11 -38 24 -38 29 0 5 -16 17 -36 26 -61 29
-62 42 -6 213 42 125 47 152 34 149 -12 -2 -31 -44 -63 -143 -26 -77 -50 -139
-55 -138 -10 2 -19 17 -28 46 -5 16 -27 17 -275 17 l-269 0 -52 -102 c-28 -57
-57 -110 -64 -118 -17 -20 -36 -76 -36 -109 -1 -14 -7 -37 -15 -51 l-14 -25
-1 25 c0 14 -9 31 -20 38 -14 8 -20 23 -20 48 0 26 -9 46 -30 71 -16 18 -30
43 -30 55 0 26 -46 88 -66 88 -8 0 -27 8 -41 18 -24 15 -54 17 -225 17 l-198
0 -31 38 c-17 20 -39 37 -49 37 -11 0 -24 9 -30 20 -11 21 -112 56 -130 45 -5
-3 -10 -18 -11 -33 0 -15 -8 -51 -17 -81 l-17 -55 -67 -21 c-80 -24 -85 -29
-95 -79 -7 -34 -16 -43 -58 -66 -37 -20 -51 -33 -53 -52 -2 -14 -20 -44 -40
-66 -32 -35 -50 -44 -122 -63 -92 -24 -146 -22 -176 8 -13 13 -15 28 -10 71 4
30 3 59 -2 66 -14 20 -30 79 -37 139 -5 45 -13 64 -36 88 -23 24 -29 39 -29
73 0 30 -8 55 -25 80 -16 24 -25 51 -25 76 0 29 -4 40 -15 40 -11 0 -15 -12
-15 -44z"/>
<path d="M4236 15783 c-6 -14 -5 -15 5 -6 7 7 10 15 7 18 -3 3 -9 -2 -12 -12z"/>
<path d="M5534 15565 c0 -93 2 -133 3 -88 2 45 2 122 0 170 -1 48 -3 12 -3
-82z"/>
<path d="M4200 15683 c0 -6 6 -13 14 -16 8 -3 17 -23 19 -44 l4 -38 1 36 c1
25 -4 42 -18 54 -11 10 -20 13 -20 8z"/>
<path d="M4250 15524 c0 -19 28 -36 52 -31 21 4 20 4 -4 6 -15 0 -32 9 -37 19
-6 9 -11 12 -11 6z"/>
<path d="M4345 15424 c0 -53 3 -66 21 -78 12 -9 29 -34 38 -56 16 -41 40 -52
63 -29 19 19 79 1 107 -31 30 -37 44 -38 56 -5 8 21 16 25 49 25 l40 0 4 -142
3 -143 -1 145 0 145 -47 3 c-44 3 -48 1 -54 -22 -8 -33 -14 -33 -49 4 -31 33
-90 49 -108 31 -22 -22 -42 -10 -64 39 -13 30 -28 50 -38 50 -14 0 -15 9 -9
59 3 32 2 61 -2 64 -5 3 -9 -24 -9 -59z"/>
<path d="M5522 15098 l-2 -256 -231 -286 -232 -286 -148 0 c-122 0 -149 -3
-149 -14 0 -8 -6 -17 -12 -19 -8 -3 -6 -6 5 -6 9 -1 17 6 17 14 0 13 28 15
188 17 103 1 170 3 149 5 l-37 4 143 177 c351 434 317 386 317 442 0 28 1 50
3 50 27 -4 111 -42 139 -64 21 -15 43 -26 50 -23 9 4 8 6 -3 6 -8 1 -31 15
-49 31 -18 17 -39 30 -47 30 -7 0 -31 7 -53 16 l-40 16 -3 202 -2 201 -3 -257z"/>
<path d="M3754 15295 c-3 -8 -4 -20 -1 -27 3 -7 6 -3 6 10 1 12 4 22 9 22 26
0 111 -34 141 -56 l36 -26 -32 30 c-17 17 -55 37 -86 46 -67 19 -66 19 -73 1z"/>
<path d="M3745 15230 c17 -73 15 -99 -9 -183 -14 -49 -28 -92 -31 -97 -4 -7
-60 1 -100 15 -20 6 -20 6 0 -6 31 -20 93 -28 105 -14 14 17 60 181 59 213 0
15 -7 43 -15 62 -8 20 -12 24 -9 10z"/>
<path d="M3926 15173 c-6 -14 -5 -15 5 -6 7 7 10 15 7 18 -3 3 -9 -2 -12 -12z"/>
<path d="M3922 15138 c-15 -15 -15 -48 -1 -68 8 -11 9 -7 4 18 -4 20 -2 38 5
47 15 18 9 20 -8 3z"/>
<path d="M3929 15038 c7 -10 24 -18 37 -18 13 0 24 -4 24 -9 0 -5 9 -13 20
-16 12 -4 20 -15 20 -29 0 -17 54 -103 83 -133 11 -10 67 -21 67 -12 0 5 -10
9 -22 9 -13 0 -28 4 -34 8 -24 17 -84 107 -84 127 0 24 -49 65 -78 65 -10 0
-24 6 -32 13 -12 10 -12 9 -1 -5z"/>
<path d="M3525 15008 c18 -24 44 -43 50 -36 1 2 -14 17 -34 33 -35 30 -35 30
-16 3z"/>
<path d="M4721 14931 c-2 -30 -53 -91 -76 -91 -12 0 -28 -7 -35 -15 -7 -8 -19
-15 -27 -15 -8 0 -22 -13 -31 -30 -9 -16 -19 -30 -23 -30 -3 0 -20 16 -39 35
-42 43 -55 44 -69 5 -14 -42 -53 -37 -108 13 -18 16 -25 18 -38 7 -9 -7 -29
-10 -52 -7 l-38 6 33 -11 c22 -8 40 -8 55 -1 17 8 26 6 42 -10 47 -45 99 -49
114 -6 12 34 27 31 70 -15 30 -32 38 -32 53 -2 6 14 24 30 39 37 16 6 29 15
29 20 0 4 12 9 26 11 30 3 90 78 81 100 -4 10 -6 10 -6 -1z"/>
<path d="M5779 14810 c20 -22 41 -40 46 -40 5 0 25 -15 45 -32 l35 -33 -34 38
c-19 20 -40 37 -47 37 -7 0 -21 16 -33 35 -11 19 -27 35 -35 35 -8 0 1 -16 23
-40z"/>
<path d="M5928 14703 c7 -3 16 -2 19 1 4 3 -2 6 -13 5 -11 0 -14 -3 -6 -6z"/>
<path d="M5978 14690 c20 -8 40 -42 56 -93 3 -9 17 -22 30 -27 14 -5 35 -19
47 -31 29 -29 148 -109 163 -109 10 0 23 -17 62 -82 6 -10 20 -29 31 -41 12
-12 27 -39 34 -59 7 -21 17 -38 21 -38 5 0 2 13 -7 30 -8 16 -15 34 -15 40 0
6 -11 21 -25 34 -14 13 -25 31 -25 40 0 9 -5 16 -10 16 -6 0 -20 16 -31 35
-12 19 -26 35 -32 35 -15 0 -105 59 -141 93 -17 16 -43 35 -58 43 -16 8 -36
35 -52 69 -20 44 -29 55 -48 54 l-23 0 23 -9z"/>
<path d="M2993 14423 c9 -2 25 -2 35 0 9 3 1 5 -18 5 -19 0 -27 -2 -17 -5z"/>
<path d="M3635 14423 c70 -4 75 -5 75 -26 0 -12 7 -32 15 -43 9 -14 12 -34 8
-58 -5 -30 -11 -38 -37 -45 -21 -6 -25 -9 -10 -10 11 -1 27 5 36 12 21 16 31
76 17 93 -6 8 -15 29 -18 47 l-7 32 -77 1 -77 0 75 -3z"/>
<path d="M3063 14413 c9 -2 25 -2 35 0 9 3 1 5 -18 5 -19 0 -27 -2 -17 -5z"/>
<path d="M3388 14413 c29 -2 74 -2 100 0 26 2 2 3 -53 3 -55 0 -76 -1 -47 -3z"/>
<path d="M3168 14403 c29 -2 74 -2 100 0 26 2 2 3 -53 3 -55 0 -76 -1 -47 -3z"/>
<path d="M5348 14253 c67 -2 177 -2 245 0 67 1 12 3 -123 3 -135 0 -190 -2
-122 -3z"/>
<path d="M5774 14130 c0 -69 1 -97 3 -62 2 34 2 90 0 125 -2 34 -3 6 -3 -63z"/>
<path d="M3612 14228 c-7 -7 -12 -16 -12 -22 0 -5 6 -3 13 6 6 9 21 18 32 21
20 5 20 5 0 6 -12 0 -26 -4 -33 -11z"/>
<path d="M4649 14173 c-16 -38 -32 -81 -35 -98 -3 -24 -1 -21 10 10 7 22 25
66 40 98 14 31 24 57 21 57 -3 0 -19 -30 -36 -67z"/>
<path d="M6478 14186 c76 -56 142 -136 142 -174 0 -23 33 -43 68 -41 9 1 0 6
-20 11 -32 8 -38 14 -38 37 0 18 -14 42 -40 71 -22 24 -40 46 -40 49 -1 8 -87
71 -97 71 -4 0 8 -11 25 -24z"/>
<path d="M3601 14167 c0 -10 22 -47 49 -83 28 -36 58 -80 66 -97 21 -41 54
-77 71 -77 7 0 19 16 27 35 12 27 21 35 40 35 28 0 36 -26 15 -47 -5 -5 -9
-30 -7 -54 3 -41 5 -44 33 -45 29 -2 29 -2 3 3 -26 4 -28 8 -28 48 0 24 5 47
10 50 6 3 10 17 10 31 0 21 -5 24 -34 24 -31 0 -36 -4 -47 -35 -7 -19 -15 -35
-19 -35 -13 1 -49 39 -64 67 -9 18 -38 61 -65 97 -27 36 -51 73 -54 83 -4 17
-5 17 -6 0z"/>
<path d="M4084 14056 c-3 -8 -4 -23 -1 -33 3 -12 5 -8 6 10 1 29 -2 28 72 13
15 -3 42 1 60 10 21 9 24 12 9 8 -29 -8 -84 -8 -117 1 -16 4 -25 0 -29 -9z"/>
<path d="M4250 14043 c0 -17 21 -29 94 -52 62 -20 70 -21 85 -7 13 12 39 16
91 16 l73 0 -6 -47 c-4 -31 -3 -41 3 -28 5 11 9 36 9 55 l1 35 -77 -3 c-51 -2
-84 -9 -94 -18 -15 -13 -25 -12 -85 7 -38 12 -75 28 -81 37 -7 9 -13 11 -13 5z"/>
<path d="M3915 13980 c19 -8 73 -14 64 -6 -2 2 -22 6 -44 9 -28 5 -34 4 -20
-3z"/>
<path d="M4003 13963 c9 -2 25 -2 35 0 9 3 1 5 -18 5 -19 0 -27 -2 -17 -5z"/>
<path d="M5764 13775 c0 -104 2 -146 3 -92 2 54 2 139 0 190 -1 51 -3 7 -3
-98z"/>
<path d="M6731 13933 c-1 -25 23 -53 47 -53 12 0 9 4 -8 13 -13 7 -27 23 -31
37 -6 23 -7 23 -8 3z"/>
<path d="M4582 13850 c0 -19 2 -27 5 -17 2 9 2 25 0 35 -3 9 -5 1 -5 -18z"/>
<path d="M3971 13796 c24 -19 46 -32 49 -29 3 3 -1 8 -8 10 -7 3 -26 16 -41
29 -16 13 -32 24 -36 24 -4 0 12 -16 36 -34z"/>
<path d="M4544 13771 c-4 -17 -13 -32 -20 -34 -9 -3 -7 -4 3 -3 9 0 20 12 23
25 3 13 14 28 25 32 19 7 18 8 -3 8 -17 1 -24 -6 -28 -28z"/>
<path d="M4011 13708 c-1 -25 -10 -48 -29 -70 -38 -43 -102 -138 -102 -149 0
-5 8 -12 18 -15 9 -3 32 -12 50 -20 17 -7 32 -10 32 -5 0 4 -19 14 -42 21 -24
8 -44 15 -46 16 -6 4 21 49 34 57 8 4 14 13 14 20 0 7 16 30 35 52 39 43 49
70 42 106 -3 16 -5 12 -6 -13z"/>
<path d="M4501 13695 c-1 -11 -8 -33 -16 -49 -9 -16 -14 -31 -11 -33 7 -8 37
68 33 85 -4 14 -5 13 -6 -3z"/>
<path d="M4461 13587 c-2 -29 -30 -76 -69 -113 -34 -32 -36 -36 -19 -48 19
-15 22 -32 7 -39 -6 -3 -5 -4 2 -3 20 4 23 46 3 46 -13 0 -12 5 7 30 12 17 27
30 32 30 14 0 49 86 43 102 -3 8 -6 6 -6 -5z"/>
<path d="M5754 13360 c0 -96 2 -136 3 -87 2 48 2 126 0 175 -1 48 -3 8 -3 -88z"/>
<path d="M3971 13414 c0 -11 3 -14 6 -6 3 7 2 16 -1 19 -3 4 -6 -2 -5 -13z"/>
<path d="M3986 13365 c3 -16 11 -37 19 -45 7 -8 16 -26 20 -38 5 -19 12 -22
30 -18 17 4 27 1 34 -11 6 -10 11 -13 11 -7 0 18 -26 35 -44 28 -10 -4 -18 0
-22 12 -4 11 -13 26 -19 34 -7 8 -18 29 -24 45 l-11 30 6 -30z"/>
<path d="M4351 13365 c0 -11 6 -31 13 -44 8 -15 10 -31 6 -40 -5 -9 -11 -23
-13 -32 -8 -24 -63 -32 -91 -14 -21 14 -26 13 -56 -7 -18 -13 -38 -32 -44 -43
-6 -11 -12 -22 -13 -24 -5 -7 -42 44 -43 59 -1 10 -3 11 -6 3 -6 -13 34 -73
48 -73 4 0 14 12 22 28 8 15 27 34 43 44 25 14 30 15 48 2 35 -27 105 -2 105
37 0 11 5 19 11 19 7 0 8 7 4 18 -4 9 -14 33 -21 52 -8 22 -13 28 -13 15z"/>
<path d="M8131 13277 c-1 -4 9 -29 21 -55 12 -26 23 -73 26 -104 3 -37 10 -62
21 -70 14 -11 14 -11 5 2 -6 8 -14 40 -16 70 -4 45 -54 184 -57 157z"/>
<path d="M6941 13254 c0 -11 3 -14 6 -6 3 7 2 16 -1 19 -3 4 -6 -2 -5 -13z"/>
<path d="M2906 13251 c-3 -4 5 -6 19 -4 20 4 24 1 28 -28 l4 -34 1 38 c2 33
-1 37 -22 37 -14 0 -27 -4 -30 -9z"/>
<path d="M6931 13218 c0 -9 -4 -25 -7 -35 -5 -14 -4 -15 5 -7 7 7 11 22 8 35
-2 13 -5 16 -6 7z"/>
<path d="M4321 13184 c0 -11 3 -14 6 -6 3 7 2 16 -1 19 -3 4 -6 -2 -5 -13z"/>
<path d="M5747 13173 c-4 -3 -7 -18 -6 -32 1 -26 1 -25 10 3 9 31 7 41 -4 29z"/>
<path d="M2954 13150 c1 -8 12 -16 24 -18 13 -2 26 -10 29 -18 3 -8 17 -13 32
-13 22 2 23 2 4 6 -12 2 -27 11 -33 19 -7 8 -21 14 -30 14 -10 0 -20 6 -23 13
-2 7 -3 6 -3 -3z"/>
<path d="M5873 13163 c37 -2 97 -2 135 0 37 2 6 3 -68 3 -74 0 -105 -1 -67 -3z"/>
<path d="M4335 13135 c3 -16 8 -62 11 -102 6 -63 4 -75 -15 -101 -24 -34 -27
-62 -7 -62 19 0 26 -22 27 -93 0 -34 5 -84 9 -112 9 -48 9 -48 5 14 -3 35 -5
88 -5 117 0 41 -5 59 -21 75 l-20 20 20 33 c25 39 27 114 5 191 -7 28 -11 37
-9 20z"/>
<path d="M6178 13153 c34 -2 88 -2 120 0 31 2 3 3 -63 3 -66 0 -92 -1 -57 -3z"/>
<path d="M6920 13147 c0 -14 -11 -17 -57 -19 l-58 -2 53 -3 c58 -4 66 -21 16
-35 -43 -11 -54 -34 -52 -107 l1 -66 6 73 c6 76 16 92 58 92 16 0 25 9 33 36
7 19 9 38 6 41 -3 4 -6 -1 -6 -10z"/>
<path d="M6443 13143 c26 -2 68 -2 95 0 26 2 4 3 -48 3 -52 0 -74 -1 -47 -3z"/>
<path d="M6658 13133 c23 -2 61 -2 85 0 23 2 4 4 -43 4 -47 0 -66 -2 -42 -4z"/>
<path d="M5725 13065 c-3 -26 -4 -49 -2 -51 3 -3 8 16 12 41 3 26 4 49 2 51
-3 3 -8 -16 -12 -41z"/>
<path d="M3084 13084 c13 -13 22 -14 48 -5 40 14 38 15 38 -12 0 -13 11 -38
24 -56 20 -27 33 -34 65 -36 35 -3 42 0 63 31 13 19 26 34 29 34 4 0 18 -9 32
-20 14 -11 33 -20 43 -20 11 0 -3 12 -30 26 l-49 26 -23 -28 c-13 -15 -24 -31
-24 -35 0 -5 -17 -7 -37 -6 -43 2 -83 43 -83 83 0 30 -12 36 -46 24 -19 -8
-30 -8 -38 0 -5 5 -14 10 -19 10 -5 0 -1 -7 7 -16z"/>
<path d="M3525 13020 c-10 -11 -13 -20 -7 -20 6 0 15 6 19 14 4 7 15 16 23 19
13 5 13 6 -1 6 -9 1 -24 -8 -34 -19z"/>
<path d="M3580 13026 c0 -3 38 -19 85 -37 88 -33 100 -41 108 -74 4 -19 5 -19
6 1 2 30 -24 49 -114 83 -85 33 -85 33 -85 27z"/>
<path d="M3478 12993 c7 -3 16 -2 19 1 4 3 -2 6 -13 5 -11 0 -14 -3 -6 -6z"/>
<path d="M5712 12975 c0 -16 2 -22 5 -12 2 9 2 23 0 30 -3 6 -5 -1 -5 -18z"/>
<path d="M5695 12895 c-3 -26 -4 -49 -2 -51 3 -3 8 16 12 41 3 26 4 49 2 51
-3 3 -8 -16 -12 -41z"/>
<path d="M6812 12885 c0 -16 2 -22 5 -12 2 9 2 23 0 30 -3 6 -5 -1 -5 -18z"/>
<path d="M3780 12881 c0 -9 49 -56 53 -50 1 2 -10 16 -25 31 -15 15 -28 23
-28 19z"/>
<path d="M6780 12770 c-12 -40 -20 -74 -17 -76 2 -2 13 28 25 68 11 40 19 74
17 76 -2 2 -13 -28 -25 -68z"/>
<path d="M5682 12805 c0 -16 2 -22 5 -12 2 9 2 23 0 30 -3 6 -5 -1 -5 -18z"/>
<path d="M2687 12799 c4 -13 8 -18 11 -10 2 7 -1 18 -6 23 -8 8 -9 4 -5 -13z"/>
<path d="M3824 12805 c-8 -20 9 -40 49 -56 37 -15 192 -142 201 -165 3 -9 6
-25 6 -37 0 -14 48 -76 125 -162 68 -77 124 -145 125 -152 0 -6 -8 -14 -17
-16 -13 -3 -14 -5 -3 -6 19 -1 27 5 78 61 23 26 42 56 41 65 0 16 -1 15 -9 -2
-4 -11 -23 -37 -41 -58 l-34 -38 -127 145 c-99 112 -128 151 -128 173 0 22
-16 43 -77 100 -43 40 -101 84 -131 98 -44 21 -52 29 -47 45 7 23 -3 27 -11 5z"/>
<path d="M2737 12734 c23 -22 44 -50 46 -64 4 -22 4 -22 6 5 1 23 -7 36 -32
56 -53 42 -65 44 -20 3z"/>
<path d="M5665 12725 c-3 -26 -4 -49 -2 -51 3 -3 8 16 12 41 3 26 4 49 2 51
-3 3 -8 -16 -12 -41z"/>
<path d="M6749 12672 c-2 -5 -24 -26 -47 -46 -24 -20 -39 -36 -33 -36 16 0 97
77 89 85 -3 3 -8 2 -9 -3z"/>
<path d="M5645 12615 c-3 -26 -4 -49 -2 -51 3 -3 8 16 12 41 3 26 4 49 2 51
-3 3 -8 -16 -12 -41z"/>
<path d="M2791 12618 c0 -15 -6 -30 -11 -33 -12 -8 -10 -75 2 -75 5 0 6 11 2
25 -3 14 -1 32 6 40 6 7 10 26 7 42 l-4 28 -2 -27z"/>
<path d="M4371 12600 c-1 -8 13 -41 30 -73 26 -51 29 -60 16 -70 -12 -9 -13
-22 -6 -57 l8 -45 -3 47 c-3 43 -1 48 23 57 14 5 20 10 14 10 -13 1 -47 59
-70 116 -6 17 -12 23 -12 15z"/>
<path d="M6606 12539 c-17 -34 -26 -65 -25 -92 l2 -42 6 50 c4 28 19 69 34 93
15 23 23 42 19 42 -5 0 -21 -23 -36 -51z"/>
<path d="M5632 12525 c0 -16 2 -22 5 -12 2 9 2 23 0 30 -3 6 -5 -1 -5 -18z"/>
<path d="M4680 12523 c69 -12 101 -25 96 -38 -3 -9 7 -20 26 -29 26 -13 28
-13 18 -1 -7 8 -18 15 -25 15 -8 0 -11 8 -8 19 4 15 -4 20 -41 30 -25 6 -55
10 -68 10 -22 -2 -22 -2 2 -6z"/>
<path d="M4567 12503 c-32 -9 -56 -17 -54 -20 5 -4 129 26 136 33 8 7 -23 2
-82 -13z"/>
<path d="M2761 12470 c0 -14 -2 -41 -3 -60 l-3 -35 45 0 c25 -1 55 4 68 9 15
6 30 5 46 -4 13 -7 30 -10 38 -7 7 3 4 6 -9 6 -12 1 -25 6 -29 12 -3 6 -18 8
-33 5 -14 -4 -47 -9 -73 -11 -43 -4 -48 -2 -48 16 0 11 5 29 10 40 7 12 7 25
1 36 -8 15 -9 14 -10 -7z"/>
<path d="M5622 12470 c0 -14 2 -19 5 -12 2 6 2 18 0 25 -3 6 -5 1 -5 -13z"/>
<path d="M4478 12473 c7 -3 16 -2 19 1 4 3 -2 6 -13 5 -11 0 -14 -3 -6 -6z"/>
<path d="M4850 12430 c8 -5 22 -10 30 -10 13 0 13 1 0 10 -8 5 -22 10 -30 10
-13 0 -13 -1 0 -10z"/>
<path d="M5612 12415 c0 -16 2 -22 5 -12 2 9 2 23 0 30 -3 6 -5 -1 -5 -18z"/>
<path d="M4911 12426 c7 -7 109 -14 109 -7 0 4 -26 8 -57 9 -31 1 -55 1 -52
-2z"/>
<path d="M6555 12339 c-18 -57 -18 -62 -1 -90 10 -17 15 -39 12 -52 -6 -21 -6
-21 6 1 9 18 9 27 0 40 -24 33 -25 45 -8 99 10 30 16 57 13 59 -2 2 -12 -23
-22 -57z"/>
<path d="M5040 12378 c0 -15 8 -18 53 -16 l52 1 -45 4 c-24 3 -48 10 -52 16
-5 8 -8 6 -8 -5z"/>
<path d="M3000 12369 c19 -6 55 -28 80 -48 25 -21 56 -44 70 -51 23 -12 24
-12 11 3 -7 10 -18 17 -23 17 -9 0 -22 10 -78 62 -11 9 -36 19 -57 22 l-38 6
35 -11z"/>
<path d="M5602 12360 c0 -14 2 -19 5 -12 2 6 2 18 0 25 -3 6 -5 1 -5 -13z"/>
<path d="M5282 12341 c-1 -39 36 -93 68 -101 25 -6 26 -12 14 -61 -4 -17 1
-37 15 -60 12 -19 21 -28 21 -21 0 7 -7 24 -16 37 -13 20 -14 31 -5 55 13 39
5 60 -24 60 -27 0 -57 41 -59 81 -2 38 -13 46 -14 10z"/>
<path d="M5592 12305 c0 -16 2 -22 5 -12 2 9 2 23 0 30 -3 6 -5 -1 -5 -18z"/>
<path d="M5582 12250 c0 -14 2 -19 5 -12 2 6 2 18 0 25 -3 6 -5 1 -5 -13z"/>
<path d="M3205 12216 c47 -42 58 -51 108 -89 20 -15 37 -34 37 -42 0 -8 29
-44 65 -80 36 -37 65 -71 65 -75 0 -5 8 -11 18 -14 17 -6 47 -54 63 -101 6
-16 7 -17 8 -3 2 30 -41 90 -126 177 -46 46 -83 90 -83 97 0 7 -28 35 -62 63
-35 27 -72 58 -83 69 -11 10 -27 22 -35 26 -8 4 3 -8 25 -28z"/>
<path d="M5572 12195 c0 -16 2 -22 5 -12 2 9 2 23 0 30 -3 6 -5 -1 -5 -18z"/>
<path d="M4248 12203 c-10 -2 -24 -26 -34 -56 -9 -29 -20 -56 -24 -62 -10 -14
-62 -196 -57 -201 2 -3 17 40 32 93 15 54 31 103 35 108 4 6 14 30 21 54 10
33 20 47 43 57 30 13 20 17 -16 7z"/>
<path d="M6543 12133 c-6 -21 -10 -40 -8 -42 7 -6 26 51 23 66 -2 8 -8 -3 -15
-24z"/>
<path d="M5555 12115 c-3 -26 -4 -49 -2 -51 3 -3 8 16 12 41 3 26 4 49 2 51
-3 3 -8 -16 -12 -41z"/>
<path d="M6902 12113 c-24 -9 -41 -17 -39 -20 3 -2 24 3 48 11 51 18 72 20 97
7 28 -14 122 -40 117 -31 -2 4 -26 13 -52 19 -27 7 -56 17 -65 22 -23 12 -54
10 -106 -8z"/>
<path d="M6765 12089 c-29 -22 -47 -28 -65 -24 -19 4 -21 3 -10 -5 23 -15 31
-13 84 25 27 19 45 35 40 35 -5 0 -27 -14 -49 -31z"/>
<path d="M5451 12093 c45 -4 48 -6 68 -52 22 -52 90 -121 119 -120 12 0 9 3
-8 10 -43 17 -80 60 -80 93 0 19 -3 26 -8 18 -6 -8 -13 -1 -25 23 -16 33 -19
35 -64 33 l-48 -2 46 -3z"/>
<path d="M6530 12070 c1 -3 7 -16 15 -30 31 -54 13 -118 -57 -211 -19 -24 -49
-66 -68 -94 -18 -27 -40 -54 -47 -58 -8 -5 -21 -26 -29 -47 -9 -21 -35 -56
-58 -77 -23 -21 -47 -47 -53 -57 -6 -10 -28 -22 -49 -26 l-39 -8 35 -1 c31 -1
42 7 97 68 34 38 70 85 79 105 10 20 21 36 26 36 9 0 95 122 151 213 38 64 47
110 26 149 -6 11 -9 21 -7 23 2 2 28 6 57 9 77 7 73 13 -9 12 -38 0 -70 -3
-70 -6z"/>
<path d="M5651 11889 c-6 -18 -11 -37 -10 -43 0 -6 7 7 15 28 8 22 12 41 10
43 -2 2 -9 -10 -15 -28z"/>
<path d="M4106 11813 c-12 -41 -16 -83 -14 -143 l4 -85 2 91 c1 52 9 111 18
138 9 26 14 49 12 52 -3 2 -13 -22 -22 -53z"/>
<path d="M5611 11754 c-12 -42 -20 -78 -18 -80 2 -2 14 30 26 72 12 42 20 78
18 80 -2 2 -14 -30 -26 -72z"/>
<path d="M3550 11773 c0 -13 5 -23 10 -23 6 0 11 -19 12 -42 1 -41 2 -41 5 -8
2 20 -3 49 -11 65 -14 27 -16 28 -16 8z"/>
<path d="M3561 11637 c0 -15 3 -35 8 -45 5 -9 13 -30 17 -46 6 -17 22 -36 43
-47 30 -16 81 -85 81 -110 0 -5 -12 -10 -27 -10 -16 -1 22 -7 82 -14 61 -7
113 -10 117 -6 4 3 -20 7 -54 9 -85 5 -99 13 -133 76 -17 31 -37 56 -46 56
-21 0 -59 42 -59 66 0 11 -4 24 -9 30 -5 5 -11 23 -14 39 l-4 30 -2 -28z"/>
<path d="M5576 11634 c-4 -14 -5 -28 -3 -31 3 -2 8 8 11 23 4 14 5 28 3 31 -3
2 -8 -8 -11 -23z"/>
<path d="M5550 11545 c-7 -25 -23 -54 -35 -63 -19 -16 -21 -23 -15 -77 4 -33
5 -79 2 -103 -4 -39 -2 -46 27 -69 17 -14 31 -34 31 -44 0 -10 14 -34 31 -53
22 -25 30 -46 32 -75 1 -28 4 -36 10 -26 12 22 -8 83 -37 110 -14 13 -26 32
-26 43 0 10 -13 31 -29 46 -28 26 -29 32 -29 118 0 49 -3 92 -6 96 -4 3 4 17
18 31 23 25 53 98 43 107 -2 2 -10 -16 -17 -41z"/>
<path d="M4100 11447 l-5 -67 30 1 c23 1 25 3 8 6 -19 4 -22 12 -25 66 l-3 62
-5 -68z"/>
<path d="M6114 11446 c-3 -8 -4 -23 -1 -33 3 -12 5 -9 6 9 0 14 7 29 14 31 9
4 9 6 -1 6 -7 1 -15 -5 -18 -13z"/>
<path d="M3465 11376 c-1 -6 -8 -30 -14 -52 -15 -56 -13 -66 4 -25 8 18 15 43
15 56 0 21 4 22 70 20 39 -1 68 1 65 4 -11 10 -137 8 -140 -3z"/>
<path d="M3940 11375 c-32 -18 -25 -18 25 0 22 8 31 14 20 14 -11 0 -31 -6
-45 -14z"/>
<path d="M4020 11380 c8 -5 26 -10 39 -10 32 0 24 6 -19 14 -25 4 -31 3 -20
-4z"/>
<path d="M6094 11363 c-4 -16 -8 -63 -9 -106 -1 -42 -5 -80 -8 -84 -4 -3 -7
-18 -6 -32 0 -14 3 -19 6 -11 2 8 7 22 10 30 3 8 7 53 8 100 1 47 6 95 10 108
4 12 5 22 2 22 -3 0 -8 -12 -13 -27z"/>
<path d="M4160 11376 c0 -2 29 -21 65 -41 71 -39 81 -52 91 -114 6 -37 9 -41
35 -41 15 0 39 4 53 10 20 7 27 6 35 -8 6 -9 11 -12 11 -6 0 20 -24 32 -45 23
-11 -4 -32 -8 -46 -8 -23 -1 -28 4 -34 37 -10 54 -26 74 -95 115 -61 37 -70
41 -70 33z"/>
<path d="M2733 11288 c-6 -7 -13 -20 -17 -28 -7 -13 -6 -13 6 0 8 8 20 21 28
28 8 6 9 12 3 12 -6 0 -15 -6 -20 -12z"/>
<path d="M2790 11273 c13 -18 30 -33 39 -33 8 0 12 1 10 3 -2 1 -19 16 -38 32
l-34 30 23 -32z"/>
<path d="M3037 11263 c-4 -3 -7 -17 -7 -30 0 -23 -3 -24 -47 -19 l-48 5 40
-10 c50 -12 65 -6 65 26 0 29 13 31 55 9 24 -12 38 -13 74 -4 40 10 47 9 60
-7 38 -44 63 -57 127 -64 81 -8 116 -38 139 -114 8 -29 22 -65 30 -81 14 -26
15 -27 15 -6 0 12 -4 22 -8 22 -5 0 -17 28 -26 62 -10 35 -22 66 -28 69 -6 4
-14 38 -18 76 -7 66 -7 66 -9 16 l-1 -52 -32 10 c-18 5 -51 9 -74 9 -41 0 -79
21 -114 63 -14 16 -21 17 -60 7 -38 -9 -51 -8 -75 4 -33 17 -48 20 -58 9z"/>
<path d="M2668 11253 c6 -2 18 -2 25 0 6 3 1 5 -13 5 -14 0 -19 -2 -12 -5z"/>
<path d="M2894 11236 c11 -9 24 -16 30 -16 12 0 7 5 -24 19 -24 11 -24 11 -6
-3z"/>
<path d="M4436 11140 c14 -58 15 -79 6 -114 -6 -20 -7 -34 -2 -31 19 12 23 94
6 132 -9 21 -14 27 -10 13z"/>
<path d="M6054 11084 c-4 -14 -2 -43 5 -64 6 -20 11 -49 11 -64 0 -15 11 -51
24 -79 13 -29 26 -60 29 -69 4 -10 21 -27 39 -37 18 -11 43 -30 55 -42 19 -20
20 -25 8 -32 -8 -4 -15 -16 -15 -26 0 -11 -7 -21 -15 -25 -8 -3 -15 -12 -15
-20 0 -51 -43 -83 -69 -52 -12 14 -83 28 -75 14 3 -4 15 -8 27 -8 12 0 31 -7
41 -15 11 -8 28 -15 38 -15 18 0 48 46 48 73 0 8 7 17 15 21 8 3 15 14 15 25
0 34 27 30 66 -11 22 -22 58 -51 82 -65 23 -14 42 -29 42 -34 0 -16 80 -60 99
-54 11 3 25 -3 36 -15 10 -11 28 -20 41 -20 13 0 27 -6 31 -12 12 -19 50 -38
74 -38 20 0 33 -8 120 -77 42 -34 64 -40 89 -23 11 7 6 8 -16 4 -27 -5 -36 -1
-60 25 -15 17 -32 31 -37 31 -5 0 -22 11 -39 25 -16 14 -42 25 -57 25 -16 0
-40 11 -55 25 -15 14 -38 25 -51 25 -13 0 -30 9 -39 21 -10 14 -20 19 -34 15
-24 -8 -72 19 -102 57 -12 15 -28 27 -35 27 -8 0 -53 38 -100 84 -46 47 -94
88 -105 91 -44 14 -101 176 -104 293 -1 49 -3 52 -12 16z"/>
<path d="M5658 10986 c32 -54 10 -156 -33 -156 -7 0 -97 -133 -201 -295 l-188
-295 -103 0 -103 0 0 -140 0 -140 -312 -3 -313 -2 312 -3 312 -2 4 -137 c1
-76 4 -13 5 140 l2 277 278 2 c258 2 265 3 104 8 l-173 5 183 287 c101 158
188 287 194 288 22 0 52 46 57 88 4 33 0 52 -15 78 -11 19 -22 34 -25 34 -3 0
4 -15 15 -34z"/>
<path d="M4413 10929 c-7 -24 -16 -57 -19 -74 -4 -16 -13 -36 -21 -43 -7 -7
-13 -18 -13 -23 0 -27 39 35 45 72 4 24 12 52 17 62 5 10 8 25 6 34 -2 8 -9
-4 -15 -28z"/>
<path d="M3532 10920 c0 -14 2 -19 5 -12 2 6 2 18 0 25 -3 6 -5 1 -5 -13z"/>
<path d="M3533 10861 c0 -11 5 -18 9 -15 4 3 5 11 1 19 -7 21 -12 19 -10 -4z"/>
<path d="M3542 10805 c0 -16 2 -22 5 -12 2 9 2 23 0 30 -3 6 -5 -1 -5 -18z"/>
<path d="M3541 10770 c-5 -23 32 -148 52 -173 13 -18 32 -54 42 -82 16 -44 65
-108 65 -86 0 4 -8 16 -19 25 -10 9 -27 38 -36 63 -10 26 -31 65 -46 89 -16
23 -29 52 -30 65 0 22 -26 110 -28 99z"/>
<path d="M4363 10690 c0 -41 2 -58 4 -37 2 20 2 54 0 75 -2 20 -4 3 -4 -38z"/>
<path d="M4373 10535 c0 -38 2 -53 4 -32 2 20 2 52 0 70 -2 17 -4 1 -4 -38z"/>
<path d="M5985 10588 c-2 -7 -5 -18 -7 -25 -2 -6 -73 -84 -158 -174 -85 -89
-150 -160 -144 -158 24 9 313 324 317 346 4 24 -1 32 -8 11z"/>
<path d="M4384 10130 c-1 -173 2 -285 5 -248 3 37 4 179 1 315 l-6 248 0 -315z"/>
<path d="M3716 10385 c24 -39 24 -40 24 -28 0 6 -9 21 -21 34 l-20 24 17 -30z"/>
<path d="M3710 10310 c-10 -24 -10 -34 -1 -43 10 -9 11 -8 6 5 -4 9 -1 26 5
38 6 12 10 24 7 26 -2 3 -10 -9 -17 -26z"/>
<path d="M3711 10214 c15 -57 20 -64 13 -19 -3 22 -10 44 -14 49 -5 5 -5 -8 1
-30z"/>
<path d="M3731 10140 c-1 -9 6 -25 14 -36 8 -12 30 -52 50 -90 20 -38 33 -58
30 -44 -4 14 -24 54 -45 90 -20 36 -40 72 -43 80 -5 13 -6 13 -6 0z"/>
<path d="M6891 10092 c-23 -44 0 -73 40 -52 27 15 23 21 -6 10 -30 -12 -45 10
-25 35 7 9 10 18 7 21 -3 3 -10 -3 -16 -14z"/>
<path d="M3825 9798 c0 -79 -6 -172 -13 -208 -8 -36 -15 -75 -18 -87 -4 -21
-11 -22 -92 -26 -48 -1 -22 -3 58 -3 80 -1 123 2 95 5 l-50 6 3 38 c2 21 8 52
13 70 14 45 23 276 13 315 -6 22 -9 -12 -9 -110z"/>
<path d="M4390 9585 l0 -95 -217 -3 -218 -2 223 -3 222 -2 0 100 c0 55 -2 100
-5 100 -3 0 -5 -43 -5 -95z"/>
<path d="M5025 8855 c0 -379 1 -533 2 -342 2 192 2 502 0 690 -1 188 -2 32 -2
-348z"/>
<path d="M3413 9463 c31 -2 83 -2 115 0 31 2 5 3 -58 3 -63 0 -89 -1 -57 -3z"/>
<path d="M3190 9415 c0 -25 4 -45 9 -45 6 0 12 -24 14 -52 l3 -53 2 58 c1 32
-2 57 -8 57 -5 0 -10 16 -10 35 l0 34 63 4 62 3 -67 2 -68 2 0 -45z"/>
<path d="M2421 9275 c-1 -28 14 -49 29 -40 7 4 16 1 22 -6 8 -12 9 -11 5 1 -2
8 -12 15 -22 15 -12 0 -22 10 -26 25 -6 20 -7 21 -8 5z"/>
<path d="M3224 9135 c0 -55 1 -76 3 -47 2 29 2 74 0 100 -2 26 -3 2 -3 -53z"/>
<path d="M2481 9199 c-1 -9 7 -25 17 -36 9 -10 14 -14 10 -8 -4 6 -12 22 -17
36 -6 15 -10 18 -10 8z"/>
<path d="M2556 9118 c28 -20 43 -38 81 -103 11 -17 13 -17 13 -3 0 10 -10 29
-22 42 -62 69 -80 86 -91 86 -6 0 2 -10 19 -22z"/>
<path d="M3234 8915 c0 -55 1 -76 3 -47 2 29 2 74 0 100 -2 26 -3 2 -3 -53z"/>
<path d="M2641 8969 c-1 -16 9 -35 27 -51 46 -43 69 -51 136 -43 75 8 113 -5
127 -42 12 -32 26 -43 54 -42 16 1 15 2 -5 8 -15 4 -31 20 -39 39 -19 41 -61
55 -139 46 -82 -9 -144 25 -155 86 l-4 25 -2 -26z"/>
<path d="M3035 8793 c11 -3 25 -9 30 -13 6 -4 25 -11 42 -15 18 -3 37 -14 42
-22 4 -9 26 -19 47 -22 l39 -6 6 -65 6 -65 1 63 2 62 65 0 c57 0 69 -3 90 -25
14 -13 25 -20 25 -15 0 5 -12 18 -26 29 -21 16 -41 21 -90 21 l-64 0 -2 38
c-1 36 -1 36 -5 5 -4 -30 -7 -33 -38 -33 -22 0 -39 7 -47 19 -8 11 -30 22 -51
26 -20 4 -40 11 -43 16 -3 5 -15 8 -27 8 -20 -1 -21 -2 -2 -6z"/>
<path d="M3403 8610 c-18 -21 -33 -48 -33 -60 0 -32 18 -60 40 -60 12 0 29
-15 44 -39 14 -22 34 -42 44 -45 16 -5 80 3 119 15 7 2 20 -12 30 -31 16 -31
82 -80 108 -79 6 0 -12 11 -39 25 -37 20 -52 35 -64 65 -14 37 -34 50 -46 30
-3 -4 -27 -11 -52 -15 -52 -7 -74 5 -100 56 -8 16 -22 28 -32 28 -45 0 -58 66
-19 97 18 14 44 54 34 53 -1 0 -17 -18 -34 -40z"/>
<path d="M3254 8465 c0 -49 1 -71 3 -48 2 23 2 64 0 90 -2 26 -3 8 -3 -42z"/>
<path d="M3264 8255 c0 -55 1 -76 3 -47 2 29 2 74 0 100 -2 26 -3 2 -3 -53z"/>
<path d="M3780 8304 c0 -3 15 -11 34 -19 23 -10 36 -23 38 -37 6 -42 82 -59
163 -38 19 5 6 6 -35 3 -77 -6 -117 7 -122 38 -3 25 -78 76 -78 53z"/>
<path d="M4095 8195 c94 -26 103 -27 69 -12 -17 8 -51 17 -75 20 l-44 6 50
-14z"/>
<path d="M4213 8182 c-8 -5 1 -8 25 -9 20 -1 55 -4 77 -7 l40 -5 -40 10 c-71
18 -90 20 -102 11z"/>
<path d="M4463 8173 c15 -2 37 -2 50 0 12 2 0 4 -28 4 -27 0 -38 -2 -22 -4z"/>
<path d="M4553 8163 c9 -2 23 -2 30 0 6 3 -1 5 -18 5 -16 0 -22 -2 -12 -5z"/>
<path d="M4608 8153 c6 -2 18 -2 25 0 6 3 1 5 -13 5 -14 0 -19 -2 -12 -5z"/>
<path d="M4729 8115 c23 -14 46 -25 49 -25 3 0 16 -10 28 -21 13 -12 32 -27
42 -33 11 -6 43 -30 72 -53 28 -24 57 -43 63 -43 7 0 -4 10 -22 23 -19 12 -50
37 -69 55 -19 17 -40 32 -47 32 -7 0 -20 9 -31 21 -18 20 -104 69 -121 69 -4
0 12 -11 36 -25z"/>
<path d="M3270 8113 c0 -5 -24 -21 -53 -37 -60 -33 -97 -64 -97 -82 0 -6 -7
-17 -15 -24 -18 -15 -68 -87 -78 -112 -3 -10 -19 -20 -34 -24 -40 -9 -92 -51
-99 -79 -7 -28 -29 -44 -135 -97 -85 -42 -106 -71 -95 -132 4 -20 2 -37 -4
-41 -5 -3 -10 -22 -10 -40 0 -24 -6 -38 -20 -45 -11 -6 -20 -16 -20 -23 0 -16
-54 -37 -80 -30 -11 3 -32 -3 -47 -13 -16 -11 -35 -22 -43 -26 -11 -5 -10 -7
6 -7 11 -1 29 8 39 19 11 12 29 20 44 19 44 -4 91 12 91 30 0 9 9 22 20 29 14
8 20 23 20 46 0 18 7 39 15 46 11 9 13 16 5 24 -16 16 -12 61 9 88 11 13 53
39 93 58 76 34 118 65 118 86 0 19 55 66 92 78 20 7 38 22 46 39 7 15 17 27
23 27 5 0 9 7 9 15 0 8 14 29 30 47 17 17 30 37 30 44 0 17 35 43 98 74 29 14
52 31 52 38 0 6 -2 12 -5 12 -3 0 -5 -3 -5 -7z"/>
<path d="M5010 7642 l0 -331 53 -11 c57 -12 90 -36 130 -95 15 -22 27 -35 27
-29 0 20 -60 95 -93 114 -18 11 -42 20 -54 20 -56 0 -54 -15 -53 332 1 176 -1
323 -4 326 -4 3 -6 -144 -6 -326z"/>
<path d="M2375 7281 c-29 -19 -64 -53 -79 -79 -4 -7 1 -27 13 -45 l20 -33 -27
-42 c-26 -41 -29 -43 -66 -38 -27 3 -35 2 -25 -5 35 -22 66 -10 98 38 l31 46
-20 32 c-21 34 -18 65 6 65 8 0 14 6 14 14 0 8 19 26 43 40 23 14 38 26 32 26
-5 0 -23 -9 -40 -19z"/>
<path d="M4158 6713 c50 -2 134 -2 185 0 50 1 9 3 -93 3 -102 0 -143 -2 -92
-3z"/>
<path d="M3783 6703 c43 -2 110 -2 150 0 40 1 5 3 -78 3 -82 0 -115 -2 -72 -3z"/>
<path d="M3508 6693 c28 -2 76 -2 105 0 28 2 5 3 -53 3 -58 0 -81 -1 -52 -3z"/>
<path d="M3293 6683 c26 -2 68 -2 95 0 26 2 4 3 -48 3 -52 0 -74 -1 -47 -3z"/>
<path d="M3098 6673 c23 -2 61 -2 85 0 23 2 4 4 -43 4 -47 0 -66 -2 -42 -4z"/>
<path d="M2923 6663 c20 -2 54 -2 75 0 20 2 3 4 -38 4 -41 0 -58 -2 -37 -4z"/>
<path d="M2763 6653 c20 -2 54 -2 75 0 20 2 3 4 -38 4 -41 0 -58 -2 -37 -4z"/>
<path d="M2607 6643 c18 -2 50 -2 70 0 21 2 7 4 -32 4 -38 0 -55 -2 -38 -4z"/>
<path d="M2468 6633 c17 -2 47 -2 65 0 17 2 3 4 -33 4 -36 0 -50 -2 -32 -4z"/>
<path d="M2343 6623 c15 -2 39 -2 55 0 15 2 2 4 -28 4 -30 0 -43 -2 -27 -4z"/>
<path d="M2218 6613 c18 -2 45 -2 60 0 15 2 0 4 -33 4 -33 0 -45 -2 -27 -4z"/>
<path d="M3528 4843 c23 -2 59 -2 80 0 20 2 1 4 -43 4 -44 0 -61 -2 -37 -4z"/>
<path d="M3333 4833 c26 -2 67 -2 90 0 23 2 2 3 -48 3 -49 0 -68 -1 -42 -3z"/>
<path d="M3138 4823 c23 -2 61 -2 85 0 23 2 4 4 -43 4 -47 0 -66 -2 -42 -4z"/>
<path d="M2973 4813 c20 -2 54 -2 75 0 20 2 3 4 -38 4 -41 0 -58 -2 -37 -4z"/>
<path d="M2813 4803 c20 -2 54 -2 75 0 20 2 3 4 -38 4 -41 0 -58 -2 -37 -4z"/>
<path d="M2668 4793 c17 -2 47 -2 65 0 17 2 3 4 -33 4 -36 0 -50 -2 -32 -4z"/>
<path d="M2538 4783 c17 -2 47 -2 65 0 17 2 3 4 -33 4 -36 0 -50 -2 -32 -4z"/>
<path d="M2418 4773 c18 -2 45 -2 60 0 15 2 0 4 -33 4 -33 0 -45 -2 -27 -4z"/>
<path d="M1886 3252 c-3 -6 8 -15 24 -21 24 -8 30 -7 30 5 0 7 -4 14 -9 14 -5
0 -16 3 -24 6 -8 3 -18 1 -21 -4z"/>
<path d="M1884 3194 c3 -9 6 -18 6 -20 0 -2 7 -4 15 -4 18 0 19 12 3 28 -17
17 -31 15 -24 -4z"/>
<path d="M1884 3125 c-7 -16 3 -51 12 -43 3 3 7 17 10 32 5 28 -13 36 -22 11z"/>
<path d="M1870 3065 c0 -3 9 -16 21 -28 l21 -22 -4 25 c-2 14 -11 26 -20 28
-10 2 -18 1 -18 -3z"/>
<path d="M2004 3044 c-4 -10 -9 -22 -11 -26 -2 -4 1 -9 6 -13 15 -9 35 35 22
48 -7 7 -12 5 -17 -9z"/>
<path d="M1897 2970 c8 -17 12 -42 9 -55 -4 -15 0 -29 9 -39 11 -11 14 -26 9
-54 -5 -30 -3 -40 9 -45 9 -3 19 -22 23 -42 3 -19 10 -38 15 -41 5 -3 9 -17 9
-31 0 -16 13 -38 35 -59 29 -27 35 -40 35 -73 0 -23 4 -41 9 -41 5 0 35 23 66
51 42 39 59 49 68 40 16 -16 44 -14 51 4 3 8 17 15 32 15 21 0 25 -4 21 -19
-2 -11 4 -33 14 -50 24 -41 24 -76 -1 -101 -25 -25 -26 -62 -1 -84 14 -13 17
-27 13 -69 -2 -28 -8 -56 -13 -61 -17 -19 -9 -47 25 -81 18 -19 38 -35 44 -35
6 0 24 -12 41 -26 25 -21 29 -30 24 -54 -5 -25 -2 -30 20 -35 14 -4 149 3 300
14 l273 22 80 -31 c49 -19 97 -30 129 -30 32 -1 68 -9 100 -25 28 -14 57 -25
66 -25 9 0 33 -7 52 -15 l36 -15 -24 -59 -23 -59 18 -359 c10 -197 22 -437 26
-534 l7 -176 53 13 c39 11 96 13 216 9 173 -5 210 -11 257 -44 16 -12 38 -21
49 -21 11 0 41 -9 67 -20 52 -22 65 -24 65 -10 0 11 -74 45 -121 55 -19 4 -44
16 -57 26 -13 10 -48 23 -79 29 -60 13 -316 16 -381 5 l-41 -7 -5 44 c-3 24
-10 149 -15 278 -6 129 -16 340 -22 469 -13 244 -12 251 28 338 8 18 13 38 10
45 -2 7 -31 19 -63 26 -33 8 -79 23 -103 34 -24 12 -75 24 -115 28 -39 4 -102
20 -139 34 l-69 26 -255 -20 c-322 -25 -303 -26 -303 4 0 25 -69 96 -93 96 -8
0 -19 11 -25 25 -6 14 -16 25 -22 25 -7 0 -8 6 -2 18 5 9 12 47 15 84 6 60 4
69 -13 78 -26 14 -25 36 0 50 26 14 27 77 3 123 -9 18 -16 44 -14 60 1 15 1
27 -1 27 -2 0 -18 4 -35 9 -26 8 -37 6 -56 -9 -17 -13 -27 -16 -34 -9 -15 15
-48 3 -89 -33 -30 -27 -34 -28 -34 -10 0 11 -15 31 -34 46 -28 21 -35 34 -41
77 -7 52 -25 97 -44 108 -7 5 -7 19 1 45 10 33 10 40 -5 51 -23 16 -21 41 3
62 11 10 20 21 20 25 0 14 -27 9 -41 -8 -12 -14 -14 -14 -21 5 -4 12 -14 21
-22 21 -13 0 -12 -4 1 -30z"/>
</g>
</svg>
